<svg xmlns="http://www.w3.org/2000/svg" width="16" height="16" viewBox="0 0 16 16">
  <path fill-rule="evenodd" d="M4,-1.95399252e-14 L12,-1.95399252e-14 C14.209139,-1.99457375e-14 16,1.790861 16,4 L16,12 C16,14.209139 14.209139,16 12,16 L4,16 C1.790861,16 2.91363401e-14,14.209139 2.88657986e-14,12 L2.88657986e-14,4 C2.85952571e-14,1.790861 1.790861,-1.9134113e-14 4,-1.95399252e-14 Z M6.278,9.528 L6.278,3.504 L4.85,3.504 L4.85,9.396 C4.85,9.85200228 4.79400056,10.2119987 4.682,10.476 C4.56999944,10.7400013 4.35000164,10.872 4.022,10.872 C3.78999884,10.872 3.6040007,10.7860009 3.464,10.614 C3.3239993,10.4419991 3.23000024,10.252001 3.182,10.044 L1.982,10.56 C2.1020006,11.0640025 2.3419982,11.4659985 2.702,11.766 C3.0620018,12.0660015 3.51799724,12.216 4.07,12.216 C4.8300038,12.216 5.38799822,11.9800024 5.744,11.508 C6.10000178,11.0359976 6.278,10.3760042 6.278,9.528 Z M13.406,7.764 C13.406,6.41999328 13.1240028,5.37400374 12.56,4.626 C11.9959972,3.87799626 11.1700054,3.504 10.082,3.504 L7.946,3.504 L7.946,12 L10.07,12 C11.1660055,12 11.9959972,11.6300037 12.56,10.89 C13.1240028,10.1499963 13.406,9.10800672 13.406,7.764 Z M11.966,7.764 C11.966,8.26000248 11.9200005,8.69399814 11.828,9.066 C11.7359995,9.43800186 11.6060008,9.74799876 11.438,9.996 C11.2699992,10.2440012 11.0700012,10.4299994 10.838,10.554 C10.6059988,10.6780006 10.3540014,10.74 10.082,10.74 L9.398,10.74 L9.398,4.764 L10.082,4.764 C10.3540014,4.764 10.6059988,4.82599938 10.838,4.95 C11.0700012,5.07400062 11.2699992,5.25999876 11.438,5.508 C11.6060008,5.75600124 11.7359995,6.06799812 11.828,6.444 C11.9200005,6.82000188 11.966,7.25999748 11.966,7.764 Z"/>
</svg>
